<svg width="17" height="17" viewBox="0 0 17 17" fill="none" xmlns="http://www.w3.org/2000/svg">
<g id="bx:football">
<path id="Vector" d="M13.5086 3.49138C12.853 2.83054 12.0728 2.30634 11.2132 1.94911C10.3535 1.59189 9.4316 1.40875 8.50071 1.41029C7.56962 1.40884 6.64749 1.59201 5.78765 1.94922C4.92781 2.30643 4.14734 2.83059 3.49138 3.49138C0.729584 6.25246 0.729584 10.7468 3.49138 13.5086C4.14735 14.1696 4.92793 14.6939 5.78791 15.0511C6.64789 15.4083 7.57019 15.5914 8.50142 15.5897C9.43225 15.5913 10.3542 15.4083 11.2138 15.0512C12.0734 14.6941 12.8536 14.17 13.5093 13.5093C16.2711 10.7483 16.2711 6.25388 13.5086 3.49138V3.49138ZM8.62821 2.83333H8.37392C8.41712 2.83263 8.45821 2.82696 8.50142 2.82696C8.54462 2.82696 8.585 2.83263 8.62821 2.83333ZM12.9221 12.0417H11.3333L10.4422 13.8238C9.82063 14.0535 9.16339 14.1717 8.50071 14.173C7.8368 14.1718 7.17833 14.0534 6.55563 13.8231L5.66667 12.0487H4.08354C3.49948 11.3226 3.10449 10.463 2.93392 9.54692L4.25 7.79167L3.38867 6.06829C3.66351 5.48363 4.03707 4.95071 4.49296 4.49296C5.13101 3.85267 5.91309 3.37444 6.77379 3.09825L8.5 4.25L10.2269 3.09896C11.0874 3.37534 11.8693 3.85327 12.5078 4.49296C12.9631 4.95017 13.3364 5.48234 13.6113 6.06617L12.75 7.79167L14.0661 9.54692C13.8963 10.4601 13.5033 11.3171 12.9221 12.0417Z" fill="#34363D"/>
<path id="Vector_2" d="M6.02083 7.79167L7.08333 10.625H9.91667L10.9792 7.79167L8.5 6.02083L6.02083 7.79167Z" fill="#34363D"/>
</g>
</svg>
